<?xml version="1.0" encoding="UTF-8"?><svg id="Layer_1" xmlns="http://www.w3.org/2000/svg" width="308" height="51" viewBox="0 0 308 51"><defs><style>.cls-1{fill:none;stroke:#000;stroke-linecap:round;stroke-linejoin:round;stroke-width:1.5px;}.cls-2{fill:#000;fill-rule:evenodd;stroke-width:0px;}</style></defs><path class="cls-2" d="M23.16,7.56c.92-2.1,4.06-2.1,4.98,0l4.28,9.77,11.1.85c2.39.18,3.36,3.01,1.54,4.5l-8.46,6.88,2.58,10.29c.56,2.22-1.98,3.97-4.03,2.78l-9.5-5.51-9.5,5.51c-2.05,1.19-4.58-.57-4.03-2.78l2.58-10.29-8.46-6.88c-1.82-1.48-.85-4.32,1.54-4.5l11.1-.85,4.28-9.77h0Z"/><path class="cls-2" d="M74,7.55c.92-2.1,4.06-2.1,4.98,0l4.28,9.77,11.1.85c2.39.18,3.36,3.01,1.54,4.5l-8.46,6.88,2.58,10.29c.56,2.22-1.98,3.97-4.03,2.78l-9.5-5.51-9.5,5.51c-2.05,1.19-4.58-.57-4.03-2.78l2.58-10.29-8.46-6.88c-1.82-1.48-.85-4.32,1.54-4.5l11.1-.85,4.28-9.77h0Z"/><path class="cls-2" d="M125,7.55c.92-2.1,4.06-2.1,4.98,0l4.28,9.77,11.1.85c2.39.18,3.36,3.01,1.54,4.5l-8.46,6.88,2.58,10.29c.56,2.22-1.98,3.97-4.03,2.78l-9.5-5.51-9.5,5.51c-2.05,1.19-4.58-.57-4.03-2.78l2.58-10.29-8.46-6.88c-1.82-1.48-.85-4.32,1.54-4.5l11.1-.85,4.28-9.77h0Z"/><path class="cls-2" d="M176,7.55c.92-2.1,4.06-2.1,4.98,0l4.28,9.77,11.1.85c2.39.18,3.36,3.01,1.54,4.5l-8.46,6.88,2.58,10.29c.56,2.22-1.98,3.97-4.03,2.78l-9.5-5.51-9.5,5.51c-2.05,1.19-4.58-.57-4.03-2.78l2.58-10.29-8.46-6.88c-1.82-1.48-.85-4.32,1.54-4.5l11.1-.85,4.28-9.77h0Z"/><path class="cls-1" d="M279,7.59c.26-.58.97-.85,1.59-.62.3.11.54.34.67.62l4.61,10.27c.18.39.57.66,1.03.69l11.97.89c1.08.08,1.52,1.33.7,1.99l-9.12,7.24c-.35.28-.5.71-.39,1.12l2.79,10.82c.16.61-.25,1.22-.9,1.36-.31.07-.64.02-.92-.14l-10.25-5.8c-.39-.22-.88-.22-1.27,0l-10.25,5.8c-.57.33-1.33.16-1.68-.37-.17-.25-.22-.56-.15-.85l2.79-10.82c.11-.41-.05-.84-.39-1.12l-9.12-7.24c-.51-.4-.57-1.12-.14-1.59.21-.23.51-.37.83-.39l11.97-.89c.46-.03.85-.3,1.03-.69l4.61-10.27h0Z"/><path class="cls-1" d="M228,7.34c.26-.58.97-.85,1.59-.62.3.11.54.34.67.62l4.61,10.27c.18.39.57.66,1.03.69l11.97.89c1.08.08,1.52,1.33.7,1.99l-9.12,7.24c-.35.28-.5.71-.39,1.12l2.79,10.82c.16.61-.25,1.22-.9,1.36-.31.07-.64.02-.92-.14l-10.25-5.8c-.39-.22-.88-.22-1.27,0l-10.25,5.8c-.57.33-1.33.16-1.68-.37-.17-.25-.22-.56-.15-.85l2.79-10.82c.11-.41-.05-.84-.39-1.12l-9.12-7.24c-.51-.4-.57-1.12-.14-1.59.21-.23.51-.37.83-.39l11.97-.89c.46-.03.85-.3,1.03-.69l4.61-10.27h0Z"/></svg>