<?xml version="1.0" encoding="UTF-8"?><svg id="Layer_1" xmlns="http://www.w3.org/2000/svg" width="308" height="51" viewBox="0 0 308 51"><defs><style>.cls-1{fill:#000;fill-rule:evenodd;stroke-width:0px;}</style></defs><path class="cls-1" d="M23.16,7.56c.92-2.1,4.06-2.1,4.98,0l4.28,9.77,11.1.85c2.39.18,3.36,3.01,1.54,4.5l-8.46,6.88,2.58,10.29c.56,2.22-1.98,3.97-4.03,2.78l-9.5-5.51-9.5,5.51c-2.05,1.19-4.58-.57-4.03-2.78l2.58-10.29-8.46-6.88c-1.82-1.48-.85-4.32,1.54-4.5l11.1-.85,4.28-9.77h0Z"/><path class="cls-1" d="M74,7.55c.92-2.1,4.06-2.1,4.98,0l4.28,9.77,11.1.85c2.39.18,3.36,3.01,1.54,4.5l-8.46,6.88,2.58,10.29c.56,2.22-1.98,3.97-4.03,2.78l-9.5-5.51-9.5,5.51c-2.05,1.19-4.58-.57-4.03-2.78l2.58-10.29-8.46-6.88c-1.82-1.48-.85-4.32,1.54-4.5l11.1-.85,4.28-9.77h0Z"/><path class="cls-1" d="M125,7.55c.92-2.1,4.06-2.1,4.98,0l4.28,9.77,11.1.85c2.39.18,3.36,3.01,1.54,4.5l-8.46,6.88,2.58,10.29c.56,2.22-1.98,3.97-4.03,2.78l-9.5-5.51-9.5,5.51c-2.05,1.19-4.58-.57-4.03-2.78l2.58-10.29-8.46-6.88c-1.82-1.48-.85-4.32,1.54-4.5l11.1-.85,4.28-9.77h0Z"/><path class="cls-1" d="M176,7.55c.92-2.1,4.06-2.1,4.98,0l4.28,9.77,11.1.85c2.39.18,3.36,3.01,1.54,4.5l-8.46,6.88,2.58,10.29c.56,2.22-1.98,3.97-4.03,2.78l-9.5-5.51-9.5,5.51c-2.05,1.19-4.58-.57-4.03-2.78l2.58-10.29-8.46-6.88c-1.82-1.48-.85-4.32,1.54-4.5l11.1-.85,4.28-9.77h0Z"/><path class="cls-1" d="M227,7.2c.92-2.1,4.06-2.1,4.98,0l4.28,9.77,11.1.85c2.39.18,3.36,3.01,1.54,4.5l-8.46,6.88,2.58,10.29c.56,2.22-1.98,3.97-4.03,2.78l-9.5-5.51-9.5,5.51c-2.05,1.19-4.58-.57-4.03-2.78l2.58-10.29-8.46-6.88c-1.82-1.48-.85-4.32,1.54-4.5l11.1-.85,4.28-9.77h0Z"/><path class="cls-1" d="M278,7.2c.92-2.1,4.06-2.1,4.98,0l4.28,9.77,11.1.85c2.39.18,3.36,3.01,1.54,4.5l-8.46,6.88,2.58,10.29c.56,2.22-1.98,3.97-4.03,2.78l-9.5-5.51-9.5,5.51c-2.05,1.19-4.58-.57-4.03-2.78l2.58-10.29-8.46-6.88c-1.82-1.48-.85-4.32,1.54-4.5l11.1-.85,4.28-9.77h0Z"/></svg>